<svg version="1.1" xmlns="http://www.w3.org/2000/svg" xmlns:xlink="http://www.w3.org/1999/xlink">

<symbol id="settings" viewBox="0 0 68 68" width="68px" height="68px">
    <path id="settings" fill="#ccd0d2" d="M60.031 25.943l-5.133-1.138a23.357 23.357 0 00-1.525-3.683l2.777-4.628c1.038-1.657 1.561-4.1 0-5.657l-2.83-2.828c-1.56-1.561-4.2-1.282-5.789-.177l-4.5 2.869a23.868 23.868 0 00-3.658-1.536L38.221 3.97C37.875 2.063 36.209 0 34 0h-4c-2.209 0-3.562 2.093-4 4l-1.283 5.133a23.984 23.984 0 00-3.9 1.637l-4.615-2.939c-1.591-1.105-4.227-1.384-5.789.177l-2.829 2.828c-1.562 1.562-1.038 4 0 5.657l2.922 4.87a23.675 23.675 0 00-1.409 3.441l-5.132 1.138c-1.907.343-3.969 2.009-3.969 4.218v4c0 2.207 2.094 3.562 4 4l5.2 1.3a23.792 23.792 0 001.317 3.186l-2.926 4.876c-1.037 1.655-1.561 4.092 0 5.655l2.83 2.828c1.561 1.563 4.2 1.281 5.789.178l4.625-2.948a23.707 23.707 0 003.919 1.647l1.28 5.12c.438 1.905 1.791 4 4 4h4c2.209 0 3.875-2.062 4.219-3.968l1.154-5.21a23.849 23.849 0 003.616-1.515l4.511 2.875c1.592 1.1 4.229 1.385 5.789-.178l2.83-2.828c1.561-1.563 1.038-4 0-5.655l-2.779-4.634a24 24 0 001.432-3.428l5.2-1.3c1.906-.437 4-1.792 4-4v-4c-.002-2.209-2.064-3.875-3.971-4.218zM60 33.879a2.642 2.642 0 01-.9.384l-7.416 1.851-.687 2.1a20.388 20.388 0 01-1.195 2.857l-1 1.973 3.918 6.534a2.832 2.832 0 01.4.968l-2.631 2.626a3.053 3.053 0 01-.681-.278l-6.584-4.2-2.047 1.058a19.606 19.606 0 01-3.006 1.261l-2.18.706-1.648 7.445a1.524 1.524 0 01-.435.835h-3.6a2.6 2.6 0 01-.382-.9l-1.841-7.363-2.131-.675a19.562 19.562 0 01-3.259-1.37l-2.056-1.086-6.585 4.2a1.513 1.513 0 01-.819.285l-2.623-2.553a2.63 2.63 0 01.362-.9l4.091-6.816-.972-1.96a19.594 19.594 0 01-1.1-2.648l-.686-2.1-7.344-1.836a2.828 2.828 0 01-.97-.4v-3.719a.019.019 0 00.009 0 4.762 4.762 0 01.67-.285l7.545-1.671.693-2.2a19.8 19.8 0 011.176-2.861l.972-1.961-4.047-6.744a2.856 2.856 0 01-.4-.97l2.63-2.629a3.108 3.108 0 01.68.281l6.707 4.275 2.055-1.084a19.952 19.952 0 013.244-1.365l2.126-.677 1.824-7.3a2.867 2.867 0 01.4-.97H34c-.027.041.23.39.283.678l1.68 7.588 2.178.7a19.977 19.977 0 013.045 1.278l2.046 1.064 6.448-4.107a1.5 1.5 0 01.818-.287l2.625 2.551a2.641 2.641 0 01-.363.9l-3.959 6.593 1.01 1.976A19.366 19.366 0 0151.08 26l.691 2.208 7.393 1.642a1.394 1.394 0 01.869.481zm-27.975 10.14A12.019 12.019 0 1144.073 32a12.046 12.046 0 01-12.046 12.019zM32 24a8 8 0 108 8 8.007 8.007 0 00-8-8z" fill-rule="evenodd"/>   
</symbol>


<symbol id="clock" viewBox="0 0 68 68">
        <circle data-name="round base" cx="34" cy="34" r="32" fill="rgba(50, 77, 91, 0)" stroke="#ccd0d2" stroke-width="4"/>
        <path d="M48 32H36V18a2 2 0 00-4 0v16a2 2 0 002 2h14a2 2 0 100-4z" fill="#ccd0d2" fill-rule="evenodd"/>
</symbol>


<symbol id="upload" viewBox="0 0 68 68">
    <path d="M44.22 48.074a2 2 0 110-4h4.57c6.84 0 11.36-7.6 11.36-14.412 0-7.491-6.52-13.518-13.95-13.674l-1.44-.031-.42-1.377C42.27 7.904 37.81 3.99 29.86 3.99c-9.91 0-16.32 7.348-16.32 17.09l.02.023.16 1.834-1.82.313c-4.42.76-7.95 5.3-7.95 10.326 0 5.691 4.41 10.5 9.55 10.5h5.78a2 2 0 110 4H13.5c-7.31 0-13.48-6.639-13.48-14.5 0-6.421 4.01-12.088 9.56-13.864C10.28 8.547 18.34-.01 29.86-.01c9.06 0 15.06 4.687 17.85 12.09a17.918 17.918 0 0116.27 17.582c0 8.588-5.2 18.143-15.2 18.407zM31.97 31.312l6.42 7.081a1.4 1.4 0 002.02.189l.51-.341a1.543 1.543 0 000-2.116l-7.41-8.11c-.01-.011-.01-.023-.02-.033l-.5-.529a1.393 1.393 0 00-1.02-.435 1.41 1.41 0 00-1.02.435l-.5.529c-.01.01-.01.023-.02.033l-7.22 7.984a1.543 1.543 0 000 2.116l.5.343a1.409 1.409 0 002.03-.191zm.02 24.361a2 2 0 002-2v-22a2 2 0 10-4 0v22a2 2 0 002 2z" fill="#ccd0d2" fill-rule="evenodd"/>
</symbol>

</svg>