
<svg id="upload" xmlns="http://www.w3.org/2000/svg" width="64" height="55.687"><path d="M44.22 48.074a2 2 0 110-4h4.57c6.84 0 11.36-7.6 11.36-14.412 0-7.491-6.52-13.518-13.95-13.674l-1.44-.031-.42-1.377C42.27 7.904 37.81 3.99 29.86 3.99c-9.91 0-16.32 7.348-16.32 17.09l.02.023.16 1.834-1.82.313c-4.42.76-7.95 5.3-7.95 10.326 0 5.691 4.41 10.5 9.55 10.5h5.78a2 2 0 110 4H13.5c-7.31 0-13.48-6.639-13.48-14.5 0-6.421 4.01-12.088 9.56-13.864C10.28 8.547 18.34-.01 29.86-.01c9.06 0 15.06 4.687 17.85 12.09a17.918 17.918 0 0116.27 17.582c0 8.588-5.2 18.143-15.2 18.407zM31.97 31.312l6.42 7.081a1.4 1.4 0 002.02.189l.51-.341a1.543 1.543 0 000-2.116l-7.41-8.11c-.01-.011-.01-.023-.02-.033l-.5-.529a1.393 1.393 0 00-1.02-.435 1.41 1.41 0 00-1.02.435l-.5.529c-.01.01-.01.023-.02.033l-7.22 7.984a1.543 1.543 0 000 2.116l.5.343a1.409 1.409 0 002.03-.191zm.02 24.361a2 2 0 002-2v-22a2 2 0 10-4 0v22a2 2 0 002 2z" fill="#ccd0d2" fill-rule="evenodd"/></svg>